HIERARCHY
ROOT Hips
{
	OFFSET 0.000000 0.000000 0.000000 
	CHANNELS 6 Xposition Yposition Zposition Yrotation Zrotation Xrotation 
	JOINT Lumbar
	{
		OFFSET 0.000000 0.000000 0.000000 
		CHANNELS 3 Zrotation Xrotation Yrotation
		JOINT Neck
		{
			OFFSET 0.000000 0.445665 0.000000 
			CHANNELS 3 Zrotation Xrotation Yrotation
			End Site
			{
				OFFSET 0.000000 0.227535 0.000000 
			}
		}
		JOINT RightShoulder
		{
			OFFSET 0.019635 0.377685 0.194865 
			CHANNELS 3 Zrotation Xrotation Yrotation
			JOINT RightElbow
			{
				OFFSET 0.000000 -0.243375 0.000000 
				CHANNELS 2 Zrotation Yrotation
				JOINT RightWrist
				{
					OFFSET 0.000000 -0.264825 0.000000 
					CHANNELS 2 Zrotation Xrotation
					End Site
					{
						OFFSET 0.006600 -0.176220 0.000990 
					}
				}
			}
		}
		JOINT LeftShoulder
		{
			OFFSET 0.019635 0.377685 -0.194865 
			CHANNELS 3 Zrotation Xrotation Yrotation
			JOINT LeftElbow
			{
				OFFSET 0.000000 -0.243375 0.000000 
				CHANNELS 2 Zrotation Yrotation
				JOINT LeftWrist
				{
					OFFSET 0.000000 -0.264825 0.000000 
					CHANNELS 2 Zrotation Xrotation
					End Site
					{
						OFFSET 0.006600 -0.176220 -0.000990 
					}
				}
			}
		}
	}
	JOINT RightHip
	{
		OFFSET 0.052140 -0.069960 0.075570 
		CHANNELS 3 Zrotation Xrotation Yrotation
		JOINT RightKnee
		{
			OFFSET 0.000000 -0.402270 0.000000 
			CHANNELS 1 Zrotation
			JOINT RightAnkle
			{
				OFFSET 0.000000 -0.404085 0.000000 
				CHANNELS 3 Zrotation Xrotation Yrotation
				End Site
				{
					OFFSET 0.204105 -0.089430 0.008415 
				}
			}
		}
	}
	JOINT LeftHip
	{
		OFFSET 0.052140 -0.069960 -0.075570 
		CHANNELS 3 Zrotation Xrotation Yrotation
		JOINT LeftKnee
		{
			OFFSET 0.000000 -0.402270 0.000000 
			CHANNELS 1 Zrotation
			JOINT LeftAnkle
			{
				OFFSET 0.000000 -0.404085 0.000000 
				CHANNELS 3 Zrotation Xrotation Yrotation
				End Site
				{
					OFFSET 0.204105 -0.089430 -0.008415 
				}
			}
		}
	}
}
MOTION
Frames: 11
Frame Time: 0.02
1.41734 -0.29552 0.45726 539.57324 12.86196 -2.44637 0.18156 4.71933 -7.17022 -34.09465 4.35654 -0.83079 -16.17813 -2.71769 31.71473 116.04181 92.30008 6.67748 0.52869 -13.80497 8.54052 -18.50783 122.56317 -87.06314 8.26039 1.8189 52.30778 2.79946 -16.89582 -51.31541 -13.2677 -3.01079 -2.51587 74.91481 -7.42681 29.25433 -75.75862 -20.75494 2.55481 2.60937
1.41744 -0.29556 0.45729 539.58796 12.92094 -2.45435 0.22251 4.70358 -7.1379 -34.04033 4.41741 -0.83079 -16.051 -2.87009 31.81796 116.03253 91.18529 6.42287 0.14266 -13.7125 8.60919 -18.5476 122.58577 -86.76635 8.21948 1.85111 52.25027 2.80162 -16.87699 -51.29941 -13.27716 -3.01434 -2.51735 74.84337 -7.39693 29.26908 -75.7448 -20.74763 2.55927 2.61192
1.41757 -0.29562 0.45731 539.60261 12.96431 -2.46046 0.26729 4.68285 -7.10025 -33.98521 4.48832 -0.83079 -15.86483 -3.13236 31.98515 116.03338 89.3356 6.0191 -0.49528 -13.64735 8.55833 -18.53045 122.60642 -86.82263 8.3361 1.80228 52.20344 2.76994 -16.92598 -51.28762 -13.28259 -3.01098 -2.51421 74.78793 -7.3623 29.28719 -75.71504 -20.73582 2.56574 2.61555
1.41769 -0.29567 0.45734 539.61756 13.01289 -2.46749 0.3123 4.66439 -7.06549 -33.93051 4.55214 -0.83079 -15.71029 -3.33465 32.12259 116.02671 87.87585 5.67646 -0.99715 -13.57517 8.54946 -18.53738 122.62841 -86.76384 8.38993 1.7816 52.15421 2.75437 -16.94233 -51.27479 -13.28969 -3.01073 -2.51317 74.7272 -7.33135 29.30364 -75.69127 -20.72643 2.57114 2.61861
1.41782 -0.29573 0.45737 539.63048 13.0629 -2.47361 0.35637 4.64496 -7.02892 -33.87151 4.62739 -0.83079 -15.53742 -3.57429 32.26261 116.03215 86.19108 5.36163 -1.58271 -13.48174 8.59176 -18.55107 122.6511 -86.51685 8.40808 1.79701 52.10424 2.73844 -16.95994 -51.26161 -13.29707 -3.01068 -2.51217 74.6666 -7.29323 29.32102 -75.67467 -20.7153 2.5775 2.62222
1.41793 -0.29578 0.45739 539.64786 13.10834 -2.48139 0.40067 4.62669 -6.99476 -33.8223 4.68114 -0.83079 -15.38787 -3.76436 32.41226 116.01499 84.79447 4.95441 -2.05699 -13.43716 8.50308 -18.53914 122.67044 -86.73102 8.53285 1.72121 52.05523 2.71445 -16.99293 -51.24907 -13.30306 -3.00856 -2.50999 74.60679 -7.2691 29.3372 -75.63889 -20.70678 2.58225 2.62487
1.41801 -0.29579 0.45741 539.67877 13.1498 -2.49456 0.44226 4.61327 -6.96921 -33.80695 4.67052 -0.83079 -15.31839 -3.78822 32.57628 115.9314 84.39527 4.31892 -2.15765 -13.53777 8.03521 -18.44854 122.68629 -88.30325 8.97208 1.37515 51.99908 2.67294 -17.05902 -51.23507 -13.30635 -3.00219 -2.50544 74.53877 -7.28592 29.34817 -75.55095 -20.70675 2.58189 2.62444
1.41808 -0.29579 0.45744 539.71409 13.18723 -2.50948 0.48333 4.60125 -6.9462 -33.80087 4.63827 -0.83079 -15.27401 -3.75948 32.74709 115.82511 84.30679 3.59798 -2.13917 -13.68382 7.44685 -18.33728 122.69764 -90.30096 9.50436 0.94596 51.94345 2.62467 -17.13801 -51.22148 -13.30841 -2.99402 -2.4999 74.471 -7.31688 29.35791 -75.44461 -20.70949 2.57985 2.62301
1.41815 -0.29579 0.45746 539.74682 13.22441 -2.52347 0.52509 4.58846 -6.92154 -33.78692 4.61745 -0.83079 -15.21698 -3.75722 32.91277 115.73015 84.05939 2.92154 -2.17979 -13.79742 6.94521 -18.25065 122.70712 -91.98867 9.95409 0.5806 51.89071 2.58143 -17.20724 -51.2086 -13.31099 -2.98684 -2.49495 74.40593 -7.34076 29.36891 -75.34836 -20.71088 2.57866 2.6221
1.41822 -0.29579 0.45748 539.78212 13.26996 -2.53799 0.56509 4.57607 -6.89861 -33.78844 4.59019 -0.83079 -15.16285 -3.74814 33.08984 115.63094 83.85813 2.21326 -2.20962 -13.96018 6.3089 -18.10086 122.73265 -94.16543 10.57262 0.10608 51.82507 2.52895 -17.29471 -51.1921 -13.31361 -2.97868 -2.48924 74.3293 -7.36725 29.37726 -75.24399 -20.71253 2.57714 2.62094
1.41828 -0.2958 0.4575 539.81297 13.29701 -2.55181 0.60868 4.56322 -6.87297 -33.75979 4.57113 -0.83079 -15.10979 -3.73899 33.2433 115.53547 83.64806 1.55635 -2.22851 -14.03303 5.92052 -18.0745 122.72426 -95.43946 10.86792 -0.1643 51.78658 2.49435 -17.34696 -51.18325 -13.3159 -2.97222 -2.48492 74.27705 -7.39166 29.39057 -75.15273 -20.71434 2.57592 2.62007
